<svg id="visual" viewBox="0 0 900 600" width="900" height="600" xmlns="http://www.w3.org/2000/svg" xmlns:xlink="http://www.w3.org/1999/xlink" version="1.1"><rect width="900" height="600" fill="#000c14"></rect><g><g transform="translate(598 158)"><path d="M0 -13.1L11.4 -6.6L11.4 6.6L0 13.1L-11.4 6.6L-11.4 -6.6Z" fill="none" stroke="#AA3939" stroke-width="2"></path></g><g transform="translate(725 259)"><path d="M0 -10L8.7 -5L8.7 5L0 10L-8.7 5L-8.7 -5Z" fill="none" stroke="#297EA6" stroke-width="2"></path></g><g transform="translate(601 515)"><path d="M0 -9L7.8 -4.5L7.8 4.5L0 9L-7.8 4.5L-7.8 -4.5Z" fill="none" stroke="#AA7939" stroke-width="2"></path></g><g transform="translate(225 321)"><path d="M0 -10L8.7 -5L8.7 5L0 10L-8.7 5L-8.7 -5Z" fill="none" stroke="#579532" stroke-width="2"></path></g><g transform="translate(612 14)"><path d="M0 -12L10.4 -6L10.4 6L0 12L-10.4 6L-10.4 -6Z" fill="none" stroke="#059A9A" stroke-width="2"></path></g><g transform="translate(77 190)"><path d="M0 -11L9.5 -5.5L9.5 5.5L0 11L-9.5 5.5L-9.5 -5.5Z" fill="none" stroke="#3E1AB1" stroke-width="2"></path></g><g transform="translate(711 61)"><path d="M0 -11L9.5 -5.5L9.5 5.5L0 11L-9.5 5.5L-9.5 -5.5Z" stroke="#7C0EAB" fill="none" stroke-width="2"></path></g><g transform="translate(160 398)"><path d="M0 -12L10.4 -6L10.4 6L0 12L-10.4 6L-10.4 -6Z" stroke="#BF078C" fill="none" stroke-width="2"></path></g></g></svg>